{"asset":{"generator":"glTF-Transform v4.2.1","version":"2.0","extras":{"author":"UselessViking (https://sketchfab.com/UselessViking)","license":"CC-BY-4.0 (http://creativecommons.org/licenses/by/4.0/)","source":"https://sketchfab.com/3d-models/dark-souls-bonfire-b0d68c8f4cd0487da3d1fb8327ab1044","title":"Dark Souls - Bonfire"}},"accessors":[{"type":"VEC3","componentType":5126,"count":21485,"max":[0.13729900121688843,-0.38531801104545593,0.22820299863815308],"min":[-0.18379400670528412,-0.5867050290107727,-0.1747010052204132],"bufferView":0,"byteOffset":0},{"type":"VEC3","componentType":5126,"count":21485,"bufferView":0,"byteOffset":12},{"type":"VEC4","componentType":5126,"count":21485,"bufferView":0,"byteOffset":24},{"type":"VEC2","componentType":5126,"count":21485,"bufferView":0,"byteOffset":40},{"type":"SCALAR","componentType":5125,"count":22572,"bufferView":1,"byteOffset":0},{"type":"SCALAR","componentType":5125,"count":7416,"bufferView":1,"byteOffset":90288},{"type":"SCALAR","componentType":5125,"count":5370,"bufferView":1,"byteOffset":119952},{"type":"SCALAR","componentType":5125,"count":47544,"bufferView":1,"byteOffset":141432},{"type":"SCALAR","componentType":5125,"count":288,"bufferView":1,"byteOffset":331608},{"type":"SCALAR","componentType":5125,"count":1176,"bufferView":1,"byteOffset":332760},{"type":"SCALAR","componentType":5125,"count":780,"bufferView":1,"byteOffset":337464},{"type":"VEC3","componentType":5126,"count":1581,"max":[0.3234420120716095,-0.37630099058151245,0.3192349970340729],"min":[-0.32433998584747314,-0.5666850209236145,-0.28761500120162964],"bufferView":2,"byteOffset":0},{"type":"VEC3","componentType":5126,"count":1581,"bufferView":2,"byteOffset":12},{"type":"VEC4","componentType":5126,"count":1581,"bufferView":2,"byteOffset":24},{"type":"VEC2","componentType":5126,"count":1581,"bufferView":2,"byteOffset":40},{"type":"VEC3","componentType":5126,"count":1175,"max":[-0.013102400116622448,0.654865026473999,0.08020979911088943],"min":[-0.1944900006055832,0.2287140041589737,-0.08020979911088943],"bufferView":3,"byteOffset":0},{"type":"VEC3","componentType":5126,"count":1175,"bufferView":3,"byteOffset":12},{"type":"VEC4","componentType":5126,"count":1175,"bufferView":3,"byteOffset":24},{"type":"VEC2","componentType":5126,"count":1175,"bufferView":3,"byteOffset":40},{"type":"VEC3","componentType":5126,"count":11040,"max":[0.48881399631500244,-0.4448910057544708,0.4853839874267578],"min":[-0.5044050216674805,-0.6530320048332214,-0.4931179881095886],"bufferView":4,"byteOffset":0},{"type":"VEC3","componentType":5126,"count":11040,"bufferView":4,"byteOffset":12},{"type":"VEC4","componentType":5126,"count":11040,"bufferView":4,"byteOffset":24},{"type":"VEC2","componentType":5126,"count":11040,"bufferView":4,"byteOffset":40},{"type":"VEC3","componentType":5126,"count":61,"max":[1,-0.553363025188446,1],"min":[-1,-0.553363025188446,-1],"bufferView":5,"byteOffset":0},{"type":"VEC3","componentType":5126,"count":61,"bufferView":5,"byteOffset":12},{"type":"VEC4","componentType":5126,"count":61,"bufferView":5,"byteOffset":24},{"type":"VEC2","componentType":5126,"count":61,"bufferView":5,"byteOffset":40},{"type":"VEC3","componentType":5126,"count":410,"max":[0.039806000888347626,0.23760999739170074,0.02542860060930252],"min":[-0.11164099723100662,-0.654865026473999,-0.02542860060930252],"bufferView":6,"byteOffset":0},{"type":"VEC3","componentType":5126,"count":410,"bufferView":6,"byteOffset":12},{"type":"VEC4","componentType":5126,"count":410,"bufferView":6,"byteOffset":24},{"type":"VEC2","componentType":5126,"count":410,"bufferView":6,"byteOffset":40},{"type":"VEC3","componentType":5126,"count":141,"max":[0.45594701170921326,-0.38392001390457153,0.47748398780822754],"min":[-0.5320979952812195,-0.553363025188446,-0.4719730019569397],"bufferView":7,"byteOffset":0},{"type":"VEC3","componentType":5126,"count":141,"bufferView":7,"byteOffset":12},{"type":"VEC4","componentType":5126,"count":141,"bufferView":7,"byteOffset":24},{"type":"VEC2","componentType":5126,"count":141,"bufferView":7,"byteOffset":40}],"bufferViews":[{"buffer":0,"byteOffset":0,"byteLength":1031280,"byteStride":48,"target":34962},{"buffer":0,"byteOffset":1031280,"byteLength":340584,"target":34963},{"buffer":0,"byteOffset":1371864,"byteLength":75888,"byteStride":48,"target":34962},{"buffer":0,"byteOffset":1447752,"byteLength":56400,"byteStride":48,"target":34962},{"buffer":0,"byteOffset":1504152,"byteLength":529920,"byteStride":48,"target":34962},{"buffer":0,"byteOffset":2034072,"byteLength":2928,"byteStride":48,"target":34962},{"buffer":0,"byteOffset":2037000,"byteLength":19680,"byteStride":48,"target":34962},{"buffer":0,"byteOffset":2056680,"byteLength":6768,"byteStride":48,"target":34962}],"samplers":[{"magFilter":9729,"minFilter":9987,"wrapS":10497,"wrapT":10497}],"textures":[{"source":0,"sampler":0},{"source":1,"sampler":0},{"source":2,"sampler":0},{"source":3,"sampler":0},{"source":25,"sampler":0},{"source":4,"sampler":0},{"source":5,"sampler":0},{"source":6,"sampler":0},{"source":7,"sampler":0},{"source":27,"sampler":0},{"source":8,"sampler":0},{"source":9,"sampler":0},{"source":10,"sampler":0},{"source":29,"sampler":0},{"source":11,"sampler":0},{"source":12,"sampler":0},{"source":13,"sampler":0},{"source":31,"sampler":0},{"source":14,"sampler":0},{"source":15,"sampler":0},{"source":16,"sampler":0},{"source":17,"sampler":0},{"source":33,"sampler":0},{"source":18,"sampler":0},{"source":19,"sampler":0},{"source":20,"sampler":0},{"source":35,"sampler":0},{"source":21,"sampler":0},{"source":22,"sampler":0},{"source":23,"sampler":0},{"source":37,"sampler":0},{"source":24,"sampler":0},{"source":26,"sampler":0},{"source":28,"sampler":0},{"source":30,"sampler":0},{"source":32,"sampler":0},{"source":34,"sampler":0},{"source":36,"sampler":0}],"images":[{"mimeType":"image/jpeg","uri":"textures/asche_diffuse.jpeg"},{"mimeType":"image/jpeg","uri":"textures/asche_emissive.jpeg"},{"mimeType":"image/jpeg","uri":"textures/asche_normal.jpeg"},{"mimeType":"image/png","uri":"textures/asche_occlusion.png"},{"mimeType":"image/jpeg","uri":"textures/klinge_diffuse.jpeg"},{"mimeType":"image/jpeg","uri":"textures/klinge_emissive.jpeg"},{"mimeType":"image/jpeg","uri":"textures/klinge_normal.jpeg"},{"mimeType":"image/png","uri":"textures/klinge_occlusion.png"},{"mimeType":"image/jpeg","uri":"textures/boden_diffuse.jpeg"},{"mimeType":"image/jpeg","uri":"textures/boden_normal.jpeg"},{"mimeType":"image/png","uri":"textures/boden_occlusion.png"},{"mimeType":"image/jpeg","uri":"textures/steine_diffuse.jpeg"},{"mimeType":"image/jpeg","uri":"textures/steine_normal.jpeg"},{"mimeType":"image/png","uri":"textures/steine_occlusion.png"},{"mimeType":"image/jpeg","uri":"textures/griff_diffuse.jpeg"},{"mimeType":"image/jpeg","uri":"textures/griff_emissive.jpeg"},{"mimeType":"image/jpeg","uri":"textures/griff_normal.jpeg"},{"mimeType":"image/png","uri":"textures/griff_occlusion.png"},{"mimeType":"image/jpeg","uri":"textures/knochen_diffuse.jpeg"},{"mimeType":"image/jpeg","uri":"textures/knochen_normal.jpeg"},{"mimeType":"image/png","uri":"textures/knochen_occlusion.png"},{"mimeType":"image/jpeg","uri":"textures/schaedel_diffuse.jpeg"},{"mimeType":"image/jpeg","uri":"textures/schaedel_normal.jpeg"},{"mimeType":"image/png","uri":"textures/schaedel_occlusion.png"},{"mimeType":"image/png","uri":"specular_1.png"},{"mimeType":"image/png","uri":"metallicRoughness_1.png"},{"mimeType":"image/png","uri":"specular_2.png"},{"mimeType":"image/png","uri":"metallicRoughness_2.png"},{"mimeType":"image/png","uri":"specular_3.png"},{"mimeType":"image/png","uri":"metallicRoughness_3.png"},{"mimeType":"image/png","uri":"specular_4.png"},{"mimeType":"image/png","uri":"metallicRoughness_4.png"},{"mimeType":"image/png","uri":"specular_5.png"},{"mimeType":"image/png","uri":"metallicRoughness_5.png"},{"mimeType":"image/png","uri":"specular_6.png"},{"mimeType":"image/png","uri":"metallicRoughness_6.png"},{"mimeType":"image/png","uri":"specular_7.png"},{"mimeType":"image/png","uri":"metallicRoughness_7.png"}],"buffers":[{"uri":"scene.bin","byteLength":2063448}],"materials":[{"name":"asche","doubleSided":true,"pbrMetallicRoughness":{"metallicFactor":0,"baseColorTexture":{"index":0},"metallicRoughnessTexture":{"index":4}},"emissiveFactor":[1,1,1],"emissiveTexture":{"index":1},"normalTexture":{"index":2},"occlusionTexture":{"index":3},"extensions":{"KHR_materials_ior":{"ior":1000},"KHR_materials_specular":{"specularTexture":{"index":31},"specularColorTexture":{"index":31}}}},{"name":"klinge","doubleSided":true,"pbrMetallicRoughness":{"metallicFactor":0,"baseColorTexture":{"index":5},"metallicRoughnessTexture":{"index":9}},"emissiveFactor":[1,1,1],"emissiveTexture":{"index":6},"normalTexture":{"index":7},"occlusionTexture":{"index":8},"extensions":{"KHR_materials_ior":{"ior":1000},"KHR_materials_specular":{"specularTexture":{"index":32},"specularColorTexture":{"index":32}}}},{"name":"boden","doubleSided":true,"pbrMetallicRoughness":{"metallicFactor":0,"baseColorTexture":{"index":10},"metallicRoughnessTexture":{"index":13}},"normalTexture":{"index":11},"occlusionTexture":{"index":12},"extensions":{"KHR_materials_ior":{"ior":1000},"KHR_materials_specular":{"specularTexture":{"index":33},"specularColorTexture":{"index":33}}}},{"name":"steine","doubleSided":true,"pbrMetallicRoughness":{"metallicFactor":0,"baseColorTexture":{"index":14},"metallicRoughnessTexture":{"index":17}},"normalTexture":{"index":15},"occlusionTexture":{"index":16},"extensions":{"KHR_materials_ior":{"ior":1000},"KHR_materials_specular":{"specularTexture":{"index":34},"specularColorTexture":{"index":34}}}},{"name":"griff","doubleSided":true,"pbrMetallicRoughness":{"metallicFactor":0,"baseColorTexture":{"index":18},"metallicRoughnessTexture":{"index":22}},"emissiveFactor":[1,1,1],"emissiveTexture":{"index":19},"normalTexture":{"index":20},"occlusionTexture":{"index":21},"extensions":{"KHR_materials_ior":{"ior":1000},"KHR_materials_specular":{"specularTexture":{"index":35},"specularColorTexture":{"index":35}}}},{"name":"knochen","doubleSided":true,"pbrMetallicRoughness":{"metallicFactor":0,"baseColorTexture":{"index":23},"metallicRoughnessTexture":{"index":26}},"normalTexture":{"index":24},"occlusionTexture":{"index":25},"extensions":{"KHR_materials_ior":{"ior":1000},"KHR_materials_specular":{"specularTexture":{"index":36},"specularColorTexture":{"index":36}}}},{"name":"schaedel","doubleSided":true,"pbrMetallicRoughness":{"metallicFactor":0,"baseColorTexture":{"index":27},"metallicRoughnessTexture":{"index":30}},"normalTexture":{"index":28},"occlusionTexture":{"index":29},"extensions":{"KHR_materials_ior":{"ior":1000},"KHR_materials_specular":{"specularTexture":{"index":37},"specularColorTexture":{"index":37}}}}],"meshes":[{"name":"defaultMaterial","primitives":[{"attributes":{"NORMAL":1,"POSITION":0,"TANGENT":2,"TEXCOORD_0":3},"mode":4,"material":6,"indices":4}]},{"name":"defaultMaterial","primitives":[{"attributes":{"NORMAL":12,"POSITION":11,"TANGENT":13,"TEXCOORD_0":14},"mode":4,"material":5,"indices":5}]},{"name":"defaultMaterial","primitives":[{"attributes":{"NORMAL":16,"POSITION":15,"TANGENT":17,"TEXCOORD_0":18},"mode":4,"material":4,"indices":6}]},{"name":"defaultMaterial","primitives":[{"attributes":{"NORMAL":20,"POSITION":19,"TANGENT":21,"TEXCOORD_0":22},"mode":4,"material":3,"indices":7}]},{"name":"defaultMaterial","primitives":[{"attributes":{"NORMAL":24,"POSITION":23,"TANGENT":25,"TEXCOORD_0":26},"mode":4,"material":2,"indices":8}]},{"name":"defaultMaterial","primitives":[{"attributes":{"NORMAL":28,"POSITION":27,"TANGENT":29,"TEXCOORD_0":30},"mode":4,"material":1,"indices":9}]},{"name":"defaultMaterial","primitives":[{"attributes":{"NORMAL":32,"POSITION":31,"TANGENT":33,"TEXCOORD_0":34},"mode":4,"material":0,"indices":10}]}],"nodes":[{"name":"Sketchfab_model","rotation":[-0.7071067811865475,0,0,0.7071067811865476],"children":[1]},{"name":"Collada visual scene group","rotation":[0.7071067966408576,0,0,0.7071067657322372],"children":[2,4,6,8,10,12,14]},{"name":"schaedel3","children":[3]},{"name":"defaultMaterial","mesh":0},{"name":"pCube38","children":[5]},{"name":"defaultMaterial","mesh":1},{"name":"polySurface1","children":[7]},{"name":"defaultMaterial","mesh":2},{"name":"pCube30","children":[9]},{"name":"defaultMaterial","mesh":3},{"name":"pDisc1","children":[11]},{"name":"defaultMaterial","mesh":4},{"name":"pCube1","children":[13]},{"name":"defaultMaterial","mesh":5},{"name":"pSphere1","children":[15]},{"name":"defaultMaterial","mesh":6}],"scenes":[{"name":"Sketchfab_Scene","nodes":[0]}],"scene":0,"extensionsUsed":["KHR_materials_ior","KHR_materials_specular"]}